<mxfile host="app.diagrams.net" modified="2021-01-10T12:25:33.499Z" agent="5.0 (Windows NT 6.1; Win64; x64) AppleWebKit/537.36 (KHTML, like Gecko) Chrome/87.0.4280.88 Safari/537.36" etag="y-9kSojnNmRs5yyFtz6K" version="14.1.9" type="github">
  <diagram id="we3eUog-T7ytyf6fQdVB" name="Page-1">
    <mxGraphModel dx="1108" dy="482" grid="1" gridSize="10" guides="1" tooltips="1" connect="1" arrows="1" fold="1" page="1" pageScale="1" pageWidth="850" pageHeight="1100" math="0" shadow="0">
      <root>
        <mxCell id="0" />
        <mxCell id="1" parent="0" />
        <mxCell id="Em9ltUH2qSsXvDLARamy-3" value="&lt;br&gt;Details Updation&lt;br&gt;&lt;br&gt;&lt;div style=&quot;text-align: right&quot;&gt;&lt;span&gt;&lt;b&gt;0.1&lt;/b&gt;&lt;/span&gt;&lt;/div&gt;" style="ellipse;whiteSpace=wrap;html=1;" vertex="1" parent="1">
          <mxGeometry x="40" y="80" width="120" height="80" as="geometry" />
        </mxCell>
        <mxCell id="Em9ltUH2qSsXvDLARamy-4" value="&lt;br&gt;User Process&lt;br&gt;&lt;br&gt;&lt;div style=&quot;text-align: right&quot;&gt;&lt;span&gt;&lt;b&gt;0.2&lt;/b&gt;&lt;/span&gt;&lt;/div&gt;" style="ellipse;whiteSpace=wrap;html=1;" vertex="1" parent="1">
          <mxGeometry x="200" y="200" width="120" height="80" as="geometry" />
        </mxCell>
        <mxCell id="Em9ltUH2qSsXvDLARamy-7" value="" style="endArrow=classic;html=1;exitX=0.642;exitY=0.988;exitDx=0;exitDy=0;exitPerimeter=0;entryX=0;entryY=0;entryDx=0;entryDy=0;" edge="1" parent="1" source="Em9ltUH2qSsXvDLARamy-3" target="Em9ltUH2qSsXvDLARamy-4">
          <mxGeometry width="50" height="50" relative="1" as="geometry">
            <mxPoint x="280" y="250" as="sourcePoint" />
            <mxPoint x="330" y="200" as="targetPoint" />
          </mxGeometry>
        </mxCell>
        <mxCell id="Em9ltUH2qSsXvDLARamy-12" value="" style="edgeStyle=orthogonalEdgeStyle;rounded=0;orthogonalLoop=1;jettySize=auto;html=1;" edge="1" parent="1" source="Em9ltUH2qSsXvDLARamy-8" target="Em9ltUH2qSsXvDLARamy-11">
          <mxGeometry relative="1" as="geometry" />
        </mxCell>
        <mxCell id="Em9ltUH2qSsXvDLARamy-8" value="&lt;br&gt;QR Generation&lt;br&gt;&lt;br&gt;&lt;div style=&quot;text-align: right&quot;&gt;&lt;span&gt;&lt;b&gt;0.3&lt;/b&gt;&lt;/span&gt;&lt;/div&gt;" style="ellipse;whiteSpace=wrap;html=1;" vertex="1" parent="1">
          <mxGeometry x="360" y="80" width="120" height="80" as="geometry" />
        </mxCell>
        <mxCell id="Em9ltUH2qSsXvDLARamy-10" value="" style="endArrow=classic;html=1;exitX=1;exitY=0.5;exitDx=0;exitDy=0;entryX=0;entryY=1;entryDx=0;entryDy=0;" edge="1" parent="1" source="Em9ltUH2qSsXvDLARamy-4" target="Em9ltUH2qSsXvDLARamy-8">
          <mxGeometry width="50" height="50" relative="1" as="geometry">
            <mxPoint x="150" y="250" as="sourcePoint" />
            <mxPoint x="200" y="200" as="targetPoint" />
          </mxGeometry>
        </mxCell>
        <mxCell id="Em9ltUH2qSsXvDLARamy-11" value="&lt;br&gt;QR Scanning Process&lt;br&gt;&lt;b style=&quot;text-align: right&quot;&gt;&amp;nbsp; &amp;nbsp; &amp;nbsp; &amp;nbsp; &amp;nbsp; &amp;nbsp; &amp;nbsp; &amp;nbsp; &amp;nbsp;0.4&lt;/b&gt;" style="ellipse;whiteSpace=wrap;html=1;" vertex="1" parent="1">
          <mxGeometry x="600" y="80" width="120" height="80" as="geometry" />
        </mxCell>
        <mxCell id="Em9ltUH2qSsXvDLARamy-13" value="Local Storage" style="shape=partialRectangle;whiteSpace=wrap;html=1;left=0;right=0;fillColor=none;" vertex="1" parent="1">
          <mxGeometry x="200" y="70" width="120" height="20" as="geometry" />
        </mxCell>
        <mxCell id="Em9ltUH2qSsXvDLARamy-15" value="" style="endArrow=classic;html=1;entryX=0.5;entryY=1;entryDx=0;entryDy=0;exitX=0;exitY=0;exitDx=0;exitDy=0;" edge="1" parent="1" source="Em9ltUH2qSsXvDLARamy-4" target="Em9ltUH2qSsXvDLARamy-13">
          <mxGeometry width="50" height="50" relative="1" as="geometry">
            <mxPoint x="260" y="250" as="sourcePoint" />
            <mxPoint x="310" y="200" as="targetPoint" />
          </mxGeometry>
        </mxCell>
        <mxCell id="Em9ltUH2qSsXvDLARamy-16" value="" style="endArrow=classic;html=1;exitX=0.5;exitY=1;exitDx=0;exitDy=0;entryX=1;entryY=0;entryDx=0;entryDy=0;" edge="1" parent="1" source="Em9ltUH2qSsXvDLARamy-13" target="Em9ltUH2qSsXvDLARamy-4">
          <mxGeometry width="50" height="50" relative="1" as="geometry">
            <mxPoint x="280" y="44" as="sourcePoint" />
            <mxPoint x="280" y="190" as="targetPoint" />
          </mxGeometry>
        </mxCell>
        <mxCell id="Em9ltUH2qSsXvDLARamy-20" value="" style="edgeStyle=orthogonalEdgeStyle;rounded=0;orthogonalLoop=1;jettySize=auto;html=1;" edge="1" parent="1" source="Em9ltUH2qSsXvDLARamy-17">
          <mxGeometry relative="1" as="geometry">
            <mxPoint x="260" y="360" as="targetPoint" />
          </mxGeometry>
        </mxCell>
        <mxCell id="Em9ltUH2qSsXvDLARamy-17" value="&lt;br&gt;View / Update&lt;br&gt;&lt;br&gt;&lt;div style=&quot;text-align: right&quot;&gt;&lt;span&gt;&lt;b&gt;0.5&lt;/b&gt;&lt;/span&gt;&lt;/div&gt;" style="ellipse;whiteSpace=wrap;html=1;" vertex="1" parent="1">
          <mxGeometry x="400" y="320" width="120" height="80" as="geometry" />
        </mxCell>
        <mxCell id="Em9ltUH2qSsXvDLARamy-24" value="Cloud Storage" style="shape=partialRectangle;whiteSpace=wrap;html=1;left=0;right=0;fillColor=none;" vertex="1" parent="1">
          <mxGeometry x="400" y="500" width="120" height="20" as="geometry" />
        </mxCell>
        <mxCell id="Em9ltUH2qSsXvDLARamy-26" value="" style="endArrow=classic;html=1;entryX=1;entryY=1;entryDx=0;entryDy=0;exitX=0.5;exitY=0;exitDx=0;exitDy=0;" edge="1" parent="1" source="Em9ltUH2qSsXvDLARamy-24" target="Em9ltUH2qSsXvDLARamy-17">
          <mxGeometry width="50" height="50" relative="1" as="geometry">
            <mxPoint x="170" y="450" as="sourcePoint" />
            <mxPoint x="220" y="400" as="targetPoint" />
          </mxGeometry>
        </mxCell>
        <mxCell id="Em9ltUH2qSsXvDLARamy-27" value="" style="endArrow=classic;html=1;entryX=0.5;entryY=0;entryDx=0;entryDy=0;exitX=0;exitY=1;exitDx=0;exitDy=0;" edge="1" parent="1" source="Em9ltUH2qSsXvDLARamy-17" target="Em9ltUH2qSsXvDLARamy-24">
          <mxGeometry width="50" height="50" relative="1" as="geometry">
            <mxPoint x="170" y="450" as="sourcePoint" />
            <mxPoint x="220" y="400" as="targetPoint" />
          </mxGeometry>
        </mxCell>
        <mxCell id="Em9ltUH2qSsXvDLARamy-28" value="" style="endArrow=classic;html=1;entryX=1;entryY=0.5;entryDx=0;entryDy=0;" edge="1" parent="1" target="Em9ltUH2qSsXvDLARamy-17">
          <mxGeometry width="50" height="50" relative="1" as="geometry">
            <mxPoint x="700" y="360" as="sourcePoint" />
            <mxPoint x="220" y="250" as="targetPoint" />
          </mxGeometry>
        </mxCell>
        <mxCell id="Em9ltUH2qSsXvDLARamy-29" value="" style="endArrow=classic;html=1;entryX=0.5;entryY=1;entryDx=0;entryDy=0;" edge="1" parent="1" target="Em9ltUH2qSsXvDLARamy-11">
          <mxGeometry width="50" height="50" relative="1" as="geometry">
            <mxPoint x="660" y="280" as="sourcePoint" />
            <mxPoint x="280" y="250" as="targetPoint" />
          </mxGeometry>
        </mxCell>
        <mxCell id="Em9ltUH2qSsXvDLARamy-30" value="" style="endArrow=classic;html=1;entryX=0;entryY=0.5;entryDx=0;entryDy=0;" edge="1" parent="1" target="Em9ltUH2qSsXvDLARamy-4">
          <mxGeometry width="50" height="50" relative="1" as="geometry">
            <mxPoint x="80" y="240" as="sourcePoint" />
            <mxPoint x="280" y="250" as="targetPoint" />
          </mxGeometry>
        </mxCell>
        <mxCell id="Em9ltUH2qSsXvDLARamy-32" value="Enter Details" style="text;html=1;strokeColor=none;fillColor=none;align=center;verticalAlign=middle;whiteSpace=wrap;rounded=0;" vertex="1" parent="1">
          <mxGeometry x="100" y="220" width="80" height="20" as="geometry" />
        </mxCell>
        <mxCell id="Em9ltUH2qSsXvDLARamy-33" value="User Data" style="text;html=1;strokeColor=none;fillColor=none;align=center;verticalAlign=middle;whiteSpace=wrap;rounded=0;" vertex="1" parent="1">
          <mxGeometry x="350" y="190" width="60" height="20" as="geometry" />
        </mxCell>
        <mxCell id="Em9ltUH2qSsXvDLARamy-34" value="View" style="text;html=1;strokeColor=none;fillColor=none;align=center;verticalAlign=middle;whiteSpace=wrap;rounded=0;" vertex="1" parent="1">
          <mxGeometry x="280" y="140" width="40" height="20" as="geometry" />
        </mxCell>
        <mxCell id="Em9ltUH2qSsXvDLARamy-35" value="Save" style="text;html=1;strokeColor=none;fillColor=none;align=center;verticalAlign=middle;whiteSpace=wrap;rounded=0;" vertex="1" parent="1">
          <mxGeometry x="200" y="140" width="40" height="20" as="geometry" />
        </mxCell>
        <mxCell id="Em9ltUH2qSsXvDLARamy-36" value="Send Notifications" style="text;html=1;strokeColor=none;fillColor=none;align=center;verticalAlign=middle;whiteSpace=wrap;rounded=0;" vertex="1" parent="1">
          <mxGeometry x="290" y="340" width="100" height="20" as="geometry" />
        </mxCell>
        <mxCell id="Em9ltUH2qSsXvDLARamy-37" value="Admin manages the Data" style="text;html=1;strokeColor=none;fillColor=none;align=center;verticalAlign=middle;whiteSpace=wrap;rounded=0;" vertex="1" parent="1">
          <mxGeometry x="540" y="340" width="140" height="20" as="geometry" />
        </mxCell>
        <mxCell id="Em9ltUH2qSsXvDLARamy-38" value="Admin Scans QR Code" style="text;html=1;strokeColor=none;fillColor=none;align=center;verticalAlign=middle;whiteSpace=wrap;rounded=0;" vertex="1" parent="1">
          <mxGeometry x="660" y="190" width="80" height="50" as="geometry" />
        </mxCell>
        <mxCell id="Em9ltUH2qSsXvDLARamy-39" value="Display QR Code" style="text;html=1;strokeColor=none;fillColor=none;align=center;verticalAlign=middle;whiteSpace=wrap;rounded=0;" vertex="1" parent="1">
          <mxGeometry x="490" y="100" width="100" height="20" as="geometry" />
        </mxCell>
        <mxCell id="Em9ltUH2qSsXvDLARamy-40" value="View / Edit" style="text;html=1;strokeColor=none;fillColor=none;align=center;verticalAlign=middle;whiteSpace=wrap;rounded=0;" vertex="1" parent="1">
          <mxGeometry x="490" y="440" width="60" height="20" as="geometry" />
        </mxCell>
        <mxCell id="Em9ltUH2qSsXvDLARamy-41" value="Upload" style="text;html=1;strokeColor=none;fillColor=none;align=center;verticalAlign=middle;whiteSpace=wrap;rounded=0;" vertex="1" parent="1">
          <mxGeometry x="390" y="440" width="40" height="20" as="geometry" />
        </mxCell>
      </root>
    </mxGraphModel>
  </diagram>
</mxfile>
